<svg xmlns="http://www.w3.org/2000/svg" viewBox="-5 -10 110 110">
 <path d="m79.75 87.109v-55.469c0-4.6094 6.293-6.0195 8.2578-1.8438 0.94922 2.0312 2.6094 3.6445 4.6719 4.5352 5.2734 2.2617 1.8516 10.227-3.418 7.9688-0.28516-0.12109-0.5625-0.25-0.83984-0.39062l-0.003906 45.199c0 5.7266-8.668 5.7266-8.668 0z"/>
 <path d="m45.594 86.898c-6.6562 6.6328-18.848 5.8281-24.184-2.1719-22.602 6.0312-21.941-29.023-0.15234-39.898v-0.003906c1.3438-0.67578 2.9414-0.60547 4.2227 0.18359 1.2812 0.79297 2.0586 2.1875 2.0586 3.6953v27.203c0 9.082 13.73 9.082 13.73 0v-39.605c0-5.7344 8.6719-5.7344 8.6719 0l-0.003906 39.605c0 9.082 13.73 9.082 13.73 0v-27.203c0-5.7344 8.6719-5.7344 8.6719 0l-0.003906 27.203c-0.007813 15.023-17.711 19.992-26.742 10.992zm-26.73-29.375c-6.0781 7-9.0039 21.105 0 18.906z"/>
 <path d="m53.629 19.336v1.1719c0 4.6094-5.2227 6.0547-8.0352 3.625-2.8203 2.4414-8.0352 0.99219-8.0352-3.625v-1.1719c0-2.0703 3.125-2.0703 3.125 0v1.1719c0 1.5898 1.3945 1.668 1.6719 1.668 0.28125 0 1.6719-0.078125 1.6719-1.668l0.003906-1.1719c0-2.0703 3.125-2.0703 3.125 0v1.1719c0 1.5898 1.3945 1.668 1.6719 1.668 0.28125 0 1.6719-0.078125 1.6719-1.668l0.003906-1.1719c0-2.0625 3.125-2.0625 3.125 0z"/>
 <path d="m44.031 12.727v-4.1328c0-2.0703 3.125-2.0703 3.125 0v4.1328c0 2.0703-3.125 2.0703-3.125 0z"/>
</svg>