<svg xmlns="http://www.w3.org/2000/svg" viewBox="0 0 463.37 376.26"><g id="Calque_2" data-name="Calque 2"><g id="Calque_1-2" data-name="Calque 1"><path d="M48.42,59.79c.72,1.33-.25,2.4-.64,3.5a162.18,162.18,0,0,0-9.34,58c.19,11.64,5.72,21.54,13.07,30.34,11.62,13.9,26.81,22.5,43.57,28.56C119.53,189,145,192,170.79,192.39a677.63,677.63,0,0,0,106.33-6.3c34.16-4.85,67.66-12.47,99.66-25.63,17.8-7.32,35-15.8,49.38-29,8.77-8.08,8.88-11.32,1.68-20.88-7.39-9.79-16-18.46-25-26.76-1.83-1.7-2.19-2.94-1.26-5.33,9.74-25.07,19.33-50.2,29-75.3.35-.9.76-1.77,1.36-3.17a124.5,124.5,0,0,1,10.7,17.39C454.81,40.53,462.35,65,463.28,91.24c1.1,30.81-8.95,58-27.65,82.23-19.88,25.74-45.78,43.77-74.83,57.63-29.81,14.23-61.3,23-93.81,28.3-39.31,6.41-78.85,8.57-118.56,5.22-32.81-2.76-64.52-10-93.6-26.24-14.06-7.85-26.58-17.61-36.65-30.32-18.91-23.87-22.5-50.37-13.4-79,8.29-26,23.33-48,41.51-68.08a8.38,8.38,0,0,1,1.39-1.21C47.84,59.69,48.15,59.79,48.42,59.79Z"/><path d="M258.08,376.21a4.62,4.62,0,0,1-2.73-1.3c-12.8-8.86-25.56-17.79-38.43-26.56-2.09-1.42-1.79-2.37-.54-4q13.47-17.93,26.79-35.95c1.15-1.56,1.9-2.13,3.78-.81q19.88,14,39.92,27.67c1.58,1.09,1.81,1.78.57,3.42-8.92,11.83-17.71,23.76-26.56,35.65C260.16,375.26,259.56,376.5,258.08,376.21Z"/></g></g></svg>