<svg xmlns="http://www.w3.org/2000/svg" viewBox="0 0 7.41 6.68"><g id="Calque_2" data-name="Calque 2"><g id="Calque_1-2" data-name="Calque 1"><path d="M3.44,0A1.19,1.19,0,0,0,2.31,1.2a.27.27,0,0,0,.27.27h0a.26.26,0,0,0,.26-.27h0a.63.63,0,1,1,1.26,0,.65.65,0,0,1-.63.68H.26a.27.27,0,0,0,0,.53H3.47A1.18,1.18,0,0,0,4.63,1.2,1.18,1.18,0,0,0,3.47,0ZM6.25,1.2A1.18,1.18,0,0,0,5.09,2.4a.27.27,0,0,0,.26.27h0a.27.27,0,0,0,.27-.27h0a.63.63,0,1,1,1.26,0,.66.66,0,0,1-.63.68h-6a.27.27,0,0,0,0,.53h6A1.19,1.19,0,0,0,7.41,2.4,1.19,1.19,0,0,0,6.25,1.2Zm-6,3.08A.26.26,0,0,0,0,4.54H0a.26.26,0,0,0,.26.26H4a.65.65,0,0,1,.63.68.63.63,0,1,1-1.26,0,.25.25,0,0,0-.26-.26h0a.26.26,0,0,0-.27.26h0a1.16,1.16,0,1,0,2.32,0A1.19,1.19,0,0,0,4,4.28H.26Z"/></g></g></svg>