<svg xmlns="http://www.w3.org/2000/svg" viewBox="0 0 81 100"><defs><style>.cls-1{fill-rule:evenodd;}</style></defs><g id="Calque_2" data-name="Calque 2"><g id="Calque_1-2" data-name="Calque 1"><path class="cls-1" d="M12,0A12,12,0,0,0,0,12V88a12,12,0,0,0,12,12H69A12,12,0,0,0,81,88V12A12,12,0,0,0,69,0Zm2.35,9.5H66.63a4.91,4.91,0,0,1,4.87,4.88V28.63a4.91,4.91,0,0,1-4.87,4.87H14.35a4.91,4.91,0,0,1-4.87-4.87V14.38A4.91,4.91,0,0,1,14.35,9.5ZM16.75,38A7.26,7.26,0,1,1,9.5,45.24,7.29,7.29,0,0,1,16.75,38ZM40.5,38a7.25,7.25,0,1,1-7.25,7.25A7.29,7.29,0,0,1,40.5,38Zm23.75,0A7.25,7.25,0,1,1,57,45.23,7.29,7.29,0,0,1,64.25,38ZM16.75,57A7.25,7.25,0,1,1,9.5,64.25,7.29,7.29,0,0,1,16.75,57ZM40.5,57a7.25,7.25,0,1,1-7.25,7.25A7.29,7.29,0,0,1,40.5,57Zm23.76,0a7.3,7.3,0,0,1,7.26,7.26v19a7.26,7.26,0,0,1-14.52,0v-19A7.3,7.3,0,0,1,64.26,57ZM16.75,76A7.25,7.25,0,1,1,9.5,83.25,7.29,7.29,0,0,1,16.75,76ZM40.5,76a7.25,7.25,0,1,1-7.25,7.25A7.29,7.29,0,0,1,40.5,76Z"/></g></g></svg>