<svg xmlns="http://www.w3.org/2000/svg" viewBox="0 0 43.55 64.03"><g id="Calque_2" data-name="Calque 2"><g id="Calque_1-2" data-name="Calque 1"><path d="M43.54,1c.24,9.72-4.91,20.58-15.87,33.2h0c-2,2.06-5.31,2.37-8.59,2.43l-.13.19H16.48l.92-1.33c-1.1-3.09-2-6.29-.74-8.89C24.66,11.88,33,3.2,42.22.05a1,1,0,0,1,.89.12A1,1,0,0,1,43.54,1Z"/><path d="M30.37,50.7v5.86A7.48,7.48,0,0,1,22.9,64H7.47A7.48,7.48,0,0,1,0,56.56V50.7a7.49,7.49,0,0,1,7.47-7.47h.61V40.89H5.84a1,1,0,0,1,0-2H24.53a1,1,0,0,1,0,2H22.29v2.34h.61A7.49,7.49,0,0,1,30.37,50.7Z"/></g></g></svg>