<svg xmlns="http://www.w3.org/2000/svg" viewBox="0 0 93.76 78.42"><g id="Calque_2" data-name="Calque 2"><g id="Calque_1-2" data-name="Calque 1"><path d="M77.5,18.47a5.87,5.87,0,1,1-5.87,5.87,5.86,5.86,0,0,1,5.87-5.87h0Zm-30.62,5h0A21.07,21.07,0,1,1,25.82,44.53,21.06,21.06,0,0,1,46.88,23.47ZM57.21,0h-21a9.19,9.19,0,0,0-8,5.22l-1.9,4H12.91A11.35,11.35,0,0,0,1.68,18.88,163.35,163.35,0,0,0,0,43.08,160.88,160.88,0,0,0,1.94,68.93h0a11.37,11.37,0,0,0,8.67,9.2h0a11.53,11.53,0,0,0,2.55.29H80.62a11.37,11.37,0,0,0,11.2-9.49c.13-.81.26-1.63.38-2.45l.07-.51a167.48,167.48,0,0,0,1.49-22.89,164.71,164.71,0,0,0-1.68-24.2A11.37,11.37,0,0,0,80.84,9.22H67.41l-1.91-4A9.19,9.19,0,0,0,57.21,0Z"/></g></g></svg>