<svg xmlns="http://www.w3.org/2000/svg" viewBox="0 0 9.86 11.64"><g id="Calque_2" data-name="Calque 2"><g id="Calque_1-2" data-name="Calque 1"><path d="M3.79,0a.44.44,0,0,0,0,.87H4.5V1.8a4.92,4.92,0,0,0-2.37.85l-.46-.46a.56.56,0,0,0-.78,0,3.89,3.89,0,0,0-.36.34.57.57,0,0,0,0,.8L1,3.76a4.93,4.93,0,1,0,7.9,0l.44-.44a.57.57,0,0,0,0-.8C9.22,2.4,9.1,2.29,9,2.18a.56.56,0,0,0-.78,0l-.47.46A4.92,4.92,0,0,0,5.36,1.8V.87h.71A.44.44,0,0,0,6.5.43.43.43,0,0,0,6.07,0Zm1,2.62A4.06,4.06,0,0,1,9,6.59a.49.49,0,0,1,0,.12,4.08,4.08,0,1,1-8.15,0v0A4.06,4.06,0,0,1,4.83,2.62Z"/><path d="M3.44,5l-.6-.6a.17.17,0,0,0-.23,0,.18.18,0,0,0,0,.22l.61.61A.16.16,0,0,0,3.44,5Z"/><path d="M3.44,8.42,2.84,9a.17.17,0,0,1-.23,0,.18.18,0,0,1,0-.22l.61-.6a.16.16,0,1,1,.22.22Z"/><path d="M2.67,6.87a.16.16,0,0,0,0-.32H1.81a.16.16,0,0,0,0,.32Z"/><path d="M4.77,9.83a.16.16,0,0,0,.32,0V9a.16.16,0,0,0-.32,0Z"/><path d="M6.46,9.61A3.27,3.27,0,0,0,4.93,3.44V6.71Z"/></g></g></svg>