<svg xmlns="http://www.w3.org/2000/svg" viewBox="0 0 94.8 95.83"><g id="Calque_2" data-name="Calque 2"><g id="Calque_1-2" data-name="Calque 1"><path d="M46.88,28.43H85a9.85,9.85,0,0,1,9.81,9.8V86A9.85,9.85,0,0,1,85,95.83H9.8A9.83,9.83,0,0,1,0,86V38.23a9.85,9.85,0,0,1,9.8-9.8H33.7L24.3,12.14,22.23,8.56A5.7,5.7,0,0,1,24.12.89a2.77,2.77,0,0,1,.37-.22A5.7,5.7,0,0,1,28.66.2,5.61,5.61,0,0,1,32,2.7l.19.33L46.88,28.42ZM36,32.43H9.81A5.8,5.8,0,0,0,4,38.23V86a5.79,5.79,0,0,0,5.8,5.8H85A5.8,5.8,0,0,0,90.8,86V38.23a5.82,5.82,0,0,0-5.8-5.8H49.2l.66,1.16a2,2,0,0,1,.32.79l.24,1.48H85a2.41,2.41,0,0,1,2.37,2.37V86a2.36,2.36,0,0,1-.7,1.67l-.24.21A2.33,2.33,0,0,1,85,88.4H14.91A2.37,2.37,0,0,1,12.54,86V38.23a2.38,2.38,0,0,1,.7-1.67,2.32,2.32,0,0,1,1.67-.7H38l-2-3.43Zm17.9,18.69a2,2,0,1,1,4,0,7.94,7.94,0,0,1-2.33,5.63l-.12.11a7.94,7.94,0,0,1-11.15-.11l-.11-.12a8,8,0,0,1,.11-11.14,8,8,0,0,1,1.49-1.17L40.51,40l-.11-.1H16.54V79.37L36.08,65.54a2,2,0,0,1,2.32,0l10.17,7.2L70.11,57.5a2,2,0,0,1,2.32,0l10.94,7.75V39.86H51.1l.8,4.8A2,2,0,0,1,50,47.15a4,4,0,0,0-2.81,1.16A4,4,0,0,0,52.73,54a4,4,0,0,0,1.2-2.85ZM29.73,6.69,28.68,4.86a1.76,1.76,0,0,0-2.39-.61,1.75,1.75,0,0,0-.76,1,1.68,1.68,0,0,0,.17,1.31l1.05,1.82,3-1.72ZM6.27,57a2,2,0,0,1,4,0V67.31a2,2,0,0,1-4,0Z"/></g></g></svg>