<svg xmlns="http://www.w3.org/2000/svg" viewBox="0 0 86.85 86.84"><g id="Calque_2" data-name="Calque 2"><g id="Calque_1-2" data-name="Calque 1"><path d="M74.42,80.27h-4.1a4,4,0,0,1-3.75-2.7,9.3,9.3,0,0,0-3.17-4.38,14.39,14.39,0,0,1-5.34-13.53,14.48,14.48,0,0,1,28.79,2.18,14.37,14.37,0,0,1-5.62,11.44,8.85,8.85,0,0,0-3,4.18,4,4,0,0,1-3.77,2.81ZM72.38,50a12.73,12.73,0,0,0-1.37.08A11.9,11.9,0,0,0,60.66,60,11.77,11.77,0,0,0,65,71.12a11.88,11.88,0,0,1,4,5.52,1.38,1.38,0,0,0,1.29,1h4.1a1.33,1.33,0,0,0,1.25-.9,11.52,11.52,0,0,1,3.94-5.54,11.76,11.76,0,0,0,4.6-9.35A11.88,11.88,0,0,0,80.26,53a11.7,11.7,0,0,0-7.88-3Z"/><path d="M72.37,86.84a4,4,0,0,1-4-4,1.32,1.32,0,0,1,2.63,0,1.32,1.32,0,1,0,2.64,0,1.32,1.32,0,0,1,2.63,0,4,4,0,0,1-3.95,4Z"/><path d="M75,64.47H69.74a1.32,1.32,0,1,1,0-2.63H75a1.32,1.32,0,1,1,0,2.63Z"/><path d="M73.68,68.42H71.05a1.32,1.32,0,1,1,0-2.63h2.63a1.32,1.32,0,1,1,0,2.63Z"/><path d="M43.42,0A43.43,43.43,0,0,0,12.71,74.13a1.32,1.32,0,0,0,1.87,0l9.3-9.3a1.34,1.34,0,0,0,.38-.93,1.32,1.32,0,0,0-.38-.93A27.63,27.63,0,1,1,71.05,43.43a1.32,1.32,0,0,0,1.32,1.31H85.52a1.32,1.32,0,0,0,1.32-1.31A43.47,43.47,0,0,0,43.42,0ZM2.63,43.42c0-.43,0-.88,0-1.31H13.2c0,.43,0,.86,0,1.31s0,.88,0,1.32H2.66C2.65,44.3,2.63,43.86,2.63,43.42ZM13.68,15.54c.6-.65,1.21-1.26,1.86-1.86L23,21.12c-.64.6-1.25,1.21-1.85,1.85Zm29.74-2.38c-.45,0-.88,0-1.31,0V2.66l1.31,0c.45,0,.88,0,1.32,0V13.2c-.44,0-.87,0-1.32,0Zm20.44,8,7.45-7.45c.64.6,1.26,1.23,1.85,1.86L65.71,23A21.65,21.65,0,0,0,63.86,21.13Z"/><path d="M52.63,29a10.56,10.56,0,0,0-9.21,5.43,10.53,10.53,0,0,0-19.74,5.1c0,10.75,18.24,22.94,19,23.46a1.29,1.29,0,0,0,1.44,0c.78-.51,19-12.71,19-23.46A10.54,10.54,0,0,0,52.63,29Z"/></g></g></svg>