<svg xmlns="http://www.w3.org/2000/svg" viewBox="0 0 540 457.61"><defs><style>.cls-1{fill-rule:evenodd;}</style></defs><g id="Calque_2" data-name="Calque 2"><g id="Calque_1-2" data-name="Calque 1"><path class="cls-1" d="M21,109.81,427,.81c7-2,15,0,21,3h0c6,4,11,10,13,17l78,293v1h0a23.56,23.56,0,0,1-3,20h0a25.67,25.67,0,0,1-17,13h-1l-405,109c-7,2-15,0-21-3-6-4-11-10-13-17l-78-293a25.81,25.81,0,0,1,3-21H4A25.67,25.67,0,0,1,21,109.81Zm411-89-406,109a5.5,5.5,0,0,0-5,3h0a12.68,12.68,0,0,0-1,6l79,293c0,2,2,4,3,5a6.38,6.38,0,0,0,6,0l406-109h0a5.5,5.5,0,0,0,5-3h0a12.68,12.68,0,0,0,1-6v-1l-79-292c0-2-2-4-3-5h0C436,20.81,434,19.81,432,20.81Z"/><path class="cls-1" d="M308,358.81l185-49-34-128a133.64,133.64,0,0,0-40,6A150.59,150.59,0,0,0,308,358.81Z"/><path class="cls-1" d="M309,357.81l182-49-33-126c-7,1-13,1-19,2a141.59,141.59,0,0,0-20,4c-38,10-68,33-88,64h0A151.78,151.78,0,0,0,309,357.81Zm184-47-185,49h0c-1,0-1,0-1-1-7-38,2-77,22-108h0c20-31,51-54,89-65,7-1,14-3,20-4,7,0,14-1,20-1,1,0,2,0,2,1l34,127C494,309.81,494,310.81,493,310.81Z"/><circle cx="210.11" cy="190.16" r="32.11"/><path class="cls-1" d="M201,157.81a38.72,38.72,0,0,1,26,3h0c7,5,13,12,15,21,3,9,1,18-3,25-4,8-11,13-20,16-9,2-18,1-26-4h0a31,31,0,0,1-15-20c-3-9-1-18,3-25h0A29.47,29.47,0,0,1,201,157.81Zm25,5a33.22,33.22,0,0,0-24-3c-8,2-15,8-19,15h0a30.64,30.64,0,0,0-3,23c2,9,8,15,15,19h0c6,4,15,6,23,3a30.22,30.22,0,0,0,19-14q6-10.5,3-24a30.22,30.22,0,0,0-14-19Z"/><path class="cls-1" d="M505,116.81l-31-9,32,121,20-76C531,137.81,521,120.81,505,116.81Zm-235-63-147-40c-16-4-33,6-37,21l-20,73Zm-236,175-20,76c-5,15,5,32,21,36l31,9Zm236,175,147,40c16,4,33-6,37-21l20-73Z"/><path class="cls-1" d="M503,125.81l-15-4,18,68,11-39a25.14,25.14,0,0,0-2-15h0A23.35,23.35,0,0,0,503,125.81Zm-27-27,32,8a41.47,41.47,0,0,1,24,19h0c5,9,7,19,4,30l-20,76-10,36-10-36-32-121-4-17Zm-245-45-110-30h-1a16,16,0,0,0-15,2h0c-5,2-8,7-10,12h0l-15,56Zm-106-49,148,39,36,10-36,9-204,55-17,4,5-16,19-72v-1a38.62,38.62,0,0,1,19-24h0a41.22,41.22,0,0,1,29-5h0Zm-91,263-11,39a25.14,25.14,0,0,0,2,15c3,5,7,8,13,10l14,4Zm-30,34,20-76,10-36,10,36,32,121,4,17-16-5-32-8a41.47,41.47,0,0,1-24-19C3,322.81,1,312.81,4,301.81Zm305,102,111,30a16,16,0,0,0,15-2h0c5-2,8-7,10-12l15-56Zm106,49-148-39-36-10,36-9,204-55,17-4-5,16-19,73a38.62,38.62,0,0,1-19,24h0C436,453.81,425,455.81,415,452.81Z"/><path class="cls-1" d="M56,311.81l-9-2,4-16Z"/><path class="cls-1" d="M56,312.81l-9-2c-1,0-1-1-1-2l4-15c0-1,1-1,2-1a1,1,0,0,0,1,1l4,18a1,1,0,0,1-1,1Zm-7-4,6,1-4-11Z"/></g></g></svg>