<svg xmlns="http://www.w3.org/2000/svg" viewBox="0 0 77.33 77.33"><g id="Calque_2" data-name="Calque 2"><g id="Calque_1-2" data-name="Calque 1"><path d="M63.59,77.33H13.74A13.76,13.76,0,0,1,0,63.59V13.74A13.76,13.76,0,0,1,13.74,0H63.59A13.76,13.76,0,0,1,77.33,13.74V63.59A13.75,13.75,0,0,1,63.59,77.33ZM13.74,6A7.75,7.75,0,0,0,6,13.74V63.59a7.75,7.75,0,0,0,7.74,7.74H63.59a7.75,7.75,0,0,0,7.74-7.74V13.74A7.75,7.75,0,0,0,63.59,6Z"/><path d="M19.62,59.94c-1.17,0-2.12-.61-2.12-1.36V38.48c0-.75.95-1.36,2.12-1.36s2.13.61,2.13,1.36v20.1C21.75,59.33,20.8,59.94,19.62,59.94Z"/><polygon points="19.84 24.06 19.62 23.73 19.4 24.06 13.74 32.37 19.62 32.37 25.5 32.37 19.84 24.06"/><polygon points="19.95 28.19 19.62 27.7 19.29 28.19 10.96 40.44 19.62 40.44 28.29 40.44 19.95 28.19"/><polygon points="20.04 32.97 19.62 32.35 19.2 32.97 8.61 48.53 19.62 48.53 30.63 48.53 20.04 32.97"/><path d="M52.52,17.65c-.42-4-4.15-7.22-8.69-7.22a8.85,8.85,0,0,0-7.69,4.19,6.82,6.82,0,0,0-6.64,6.53c0,3.61,3.21,6.55,7.16,6.55H49.08a5.79,5.79,0,0,0,6-5.52A5.38,5.38,0,0,0,52.52,17.65Z"/><path d="M65.7,69C59.88,69,51.62,67.54,37.75,61,19.07,52.19,5,56,4.88,56l-1.1-3.85c.63-.18,15.55-4.28,35.68,5.22,18.61,8.77,26,7.86,32,7.13l.53-.07.48,4-.52.06A48.88,48.88,0,0,1,65.7,69Z"/><path d="M32.64,58.76a1.77,1.77,0,0,1-.42-.06,2.15,2.15,0,0,1-1.45-1.24L34.49,56l-1.86.74.76-1.84a1.83,1.83,0,0,0-1.31,0c1.91-.93,16-13.21,28.26-24.28A2,2,0,0,1,63,30.54L75.36,41l-2.58,3.05L61.72,34.73C37.42,56.63,34,58.76,32.64,58.76Z"/></g></g></svg>