<svg xmlns="http://www.w3.org/2000/svg" viewBox="0 0 95.02 95"><g id="Calque_2" data-name="Calque 2"><g id="Calque_1-2" data-name="Calque 1"><path d="M39.07,35.09a1.59,1.59,0,0,0,.35.74l6.91,7.94a1.58,1.58,0,0,0,2.23.16l.16-.16,6.9-7.94a1.64,1.64,0,0,0,.36-.75l4.62-24.3a1.58,1.58,0,0,0-.55-1.52L49.74.77a3.62,3.62,0,0,0-4.47,0L35,9.26a1.58,1.58,0,0,0-.55,1.52Zm10-30.75,7.35,6.05-7.35,3.76Zm0,13.38,7.72-4L52.94,34.08,49.09,38.5ZM45.93,4.34v9.82L38.58,10.4Zm0,13.38V38.5l-3.84-4.42L38.21,13.77Z"/><path d="M61.92,44.57h0A1.59,1.59,0,0,0,64.1,44l3.6-6a4.82,4.82,0,0,0,.74.09,4.08,4.08,0,0,0,1-.15c3-.83,8.5-2.91,11.15-7.56s1.64-10.42.81-13.45a3.59,3.59,0,0,0-4.37-2.61l-.15,0c-3,.83-8.5,2.91-11.15,7.56S64.13,32.35,65,35.38a3.51,3.51,0,0,0,.24.64L61.38,42.4A1.58,1.58,0,0,0,61.92,44.57ZM68.53,23.5h0c2.09-3.66,6.68-5.39,9.24-6.08a.63.63,0,0,1,.19,0,.44.44,0,0,1,.44.38c.71,2.56,1.58,7.39-.5,11-1.81,3.17-5.49,4.88-8.1,5.74l6-10a1.58,1.58,0,1,0-2.68-1.68l0,.05L67.51,32.2A13.47,13.47,0,0,1,68.53,23.5Z"/><path d="M25.53,38a4.07,4.07,0,0,0,1,.14,3.06,3.06,0,0,0,.74-.09l3.61,6a1.58,1.58,0,1,0,2.71-1.63L29.81,36a3.81,3.81,0,0,0,.24-.64c.84-3,1.84-8.8-.81-13.45s-8.12-6.74-11.15-7.57a3.6,3.6,0,0,0-4.47,2.42c0,.05,0,.1,0,.15-.83,3-1.83,8.8.81,13.45S22.5,37.13,25.53,38Zm-8.9-20.18a.44.44,0,0,1,.44-.38.63.63,0,0,1,.19,0c2.55.69,7.15,2.41,9.23,6.07a13.47,13.47,0,0,1,1,8.7L22,22.92A1.59,1.59,0,0,0,19.2,24.5l0,.05,6,10c-2.62-.86-6.3-2.57-8.1-5.74C15.06,25.17,15.92,20.34,16.63,17.78Z"/><path d="M1,43.18l2.85,2.16-1.1,3.52a2.63,2.63,0,0,0,1,2.92,2.49,2.49,0,0,0,3-.06l2.76-2.1,2.77,2.1a2.49,2.49,0,0,0,3,.06,2.63,2.63,0,0,0,1-2.92l-1.1-3.52L18,43.18a2.62,2.62,0,0,0,.89-2.92,2.55,2.55,0,0,0-2.42-1.75H13l-1.08-3.46a2.53,2.53,0,0,0-4.86,0L6,38.51H2.55A2.54,2.54,0,0,0,.14,40.26,2.6,2.6,0,0,0,1,43.18Zm5.43-1.5a2.54,2.54,0,0,0,2.43-1.81l.61-2,.62,2a2.53,2.53,0,0,0,2.42,1.81h2.18L12.9,43.06a2.6,2.6,0,0,0-.9,2.85L12.65,48,11,46.78a2.57,2.57,0,0,0-3,0L6.35,48,7,45.91a2.62,2.62,0,0,0-.91-2.85L4.29,41.68Z"/><path d="M78.57,38.51a2.53,2.53,0,0,0-2.41,1.75A2.6,2.6,0,0,0,77,43.18l2.85,2.16L78.8,48.86a2.6,2.6,0,0,0,1,2.92,2.48,2.48,0,0,0,3-.06l2.77-2.1,2.77,2.1a2.48,2.48,0,0,0,3,.06,2.62,2.62,0,0,0,1-2.92l-1.1-3.52L94,43.18a2.6,2.6,0,0,0,.88-2.92,2.53,2.53,0,0,0-2.41-1.75H89L88,35.05a2.53,2.53,0,0,0-4.86,0L82,38.51Zm6.34,1.36.61-2,.61,2a2.55,2.55,0,0,0,2.43,1.81h2.17l-1.81,1.38A2.62,2.62,0,0,0,88,45.91L88.67,48,87,46.78a2.55,2.55,0,0,0-3,0L82.37,48,83,45.91a2.62,2.62,0,0,0-.91-2.85L80.3,41.68h2.18A2.56,2.56,0,0,0,84.91,39.87Z"/><path d="M90.27,77.58v-14a6.38,6.38,0,0,0-5.86-6.34c-5-.37-21.91-.92-31.64,7.56a19.29,19.29,0,0,0-5.26,7.3,19.23,19.23,0,0,0-5.25-7.29c-9.73-8.49-26.68-7.94-31.65-7.56a6.38,6.38,0,0,0-5.86,6.33v14A4.75,4.75,0,0,0,0,82.33v1.58a4.76,4.76,0,0,0,4.75,4.76H38v1.58A4.75,4.75,0,0,0,42.76,95h9.5A4.75,4.75,0,0,0,57,90.25V88.67H90.27A4.76,4.76,0,0,0,95,83.91V82.33A4.75,4.75,0,0,0,90.27,77.58ZM54.84,67.16c8.8-7.67,24.67-7.13,29.32-6.78a3.15,3.15,0,0,1,2.94,3.16v1.62c-14-.92-22.46.84-25.11,5.27a1.59,1.59,0,1,0,2.72,1.63c1.92-3.22,10.06-4.55,22.39-3.72v3.35c-8.92-.78-15-.41-18.12,1.13a1.59,1.59,0,0,0,1.39,2.85h0c2.49-1.24,8.54-1.52,16.71-.79v2.71H49.27A16.52,16.52,0,0,1,54.84,67.16ZM7.92,75c9-.9,15.64-.67,18.3.66a1.53,1.53,0,0,0,.7.16,1.58,1.58,0,0,0,.71-3c-4-2-12.58-1.71-19.71-1V68.45c13.05-1,22,.28,24,3.61a1.59,1.59,0,0,0,2.72-1.63c-3.41-5.66-16-6-26.7-5.17V63.55a3.15,3.15,0,0,1,2.94-3.17c4.65-.34,20.52-.89,29.32,6.79a16.48,16.48,0,0,1,5.57,10.41H7.92ZM4.75,85.5a1.59,1.59,0,0,1-1.58-1.59V82.33a1.58,1.58,0,0,1,1.58-1.58H45.93V85.5Zm49.1,4.75a1.59,1.59,0,0,1-1.59,1.58h-9.5a1.58,1.58,0,0,1-1.58-1.58V88.67H53.85Zm38-6.34a1.58,1.58,0,0,1-1.58,1.59H49.09V80.75H90.27a1.58,1.58,0,0,1,1.58,1.58Z"/></g></g></svg>