<svg xmlns="http://www.w3.org/2000/svg" viewBox="0 0 90 90"><g id="Calque_2" data-name="Calque 2"><g id="Calque_1-2" data-name="Calque 1"><path d="M79,0H11C4.9,0,0,4.6,0,10.3V62c0,5.7,4.9,10.3,11,10.3h7.2V87.6a2.5,2.5,0,0,0,1.5,2.2,2.15,2.15,0,0,0,1.1.2,3.37,3.37,0,0,0,1.7-.5L45.2,72.3H79c6.1,0,11-4.6,11-10.3V10.3C90,4.6,85.1,0,79,0Zm5.9,61.9a5.6,5.6,0,0,1-5.8,5.4H44.2a3.37,3.37,0,0,0-1.7.5L23.4,82.3V69.7a2.55,2.55,0,0,0-2.6-2.4H11a5.6,5.6,0,0,1-5.8-5.4V10.5A5.6,5.6,0,0,1,11,5.1H79.2A5.6,5.6,0,0,1,85,10.5V61.9Z"/><path d="M27.1,21.3,16.6,50.5H23l2-6H35.8l1.9,6h6.6L34,21.3Zm-.4,18.2L30.5,28l3.7,11.5Z"/><path d="M70.8,48.1a14.68,14.68,0,0,1-.2-2.7v-2a10.85,10.85,0,0,0-.8-4.6,5.28,5.28,0,0,0-2.9-2.3,6.24,6.24,0,0,0,3.5-2.8,8.57,8.57,0,0,0,1-4.1,10.07,10.07,0,0,0-.5-3.1A9.23,9.23,0,0,0,69.4,24a6.59,6.59,0,0,0-2.7-2,13.13,13.13,0,0,0-4.6-.8h-14V50.4h6V39h6c1.7,0,2.9.3,3.5.9s.9,1.9,1,3.7v2.7a10.07,10.07,0,0,0,.3,2.5c.1.4.2.9.4,1.6H72v-.7A2.2,2.2,0,0,1,70.8,48.1ZM63.6,33.7a7.2,7.2,0,0,1-2.9.5H54.1V26.4h6.7a6.35,6.35,0,0,1,2.8.5c1.1.6,1.7,1.8,1.7,3.6C65.3,32.1,64.8,33.2,63.6,33.7Z"/></g></g></svg>