<svg xmlns="http://www.w3.org/2000/svg" viewBox="0 0 78.5 79.55"><g id="Calque_2" data-name="Calque 2"><g id="Calque_1-2" data-name="Calque 1"><path d="M75.05,39.45H3.43v31.7H9.14V62.83c0-5.71,1.76-6.75,3.46-7.75A5.63,5.63,0,0,0,15.45,52a.78.78,0,0,1,1.05-.33.81.81,0,0,1,.33.33,5.63,5.63,0,0,0,2.85,3.12c1.7,1,3.46,2,3.46,7.75v8.32h4.57V60.62c0-7.66,3-9.35,5.85-11a11,11,0,0,0,5-4.69.78.78,0,0,1,1.32,0,11,11,0,0,0,5,4.69c2.87,1.63,5.85,3.32,5.85,11V71.15H55.3V62.83c0-5.71,1.76-6.75,3.46-7.75A5.63,5.63,0,0,0,61.61,52a.78.78,0,0,1,1-.33A.81.81,0,0,1,63,52a5.63,5.63,0,0,0,2.85,3.12c1.7,1,3.46,2,3.46,7.75v8.32H75V39.44Z"/><path d="M44.25,50.94a13.13,13.13,0,0,1-5-4.17,13.13,13.13,0,0,1-5,4.17c-2.79,1.61-5,2.89-5,9.68V71.15h20V60.62C49.25,53.83,47,52.55,44.25,50.94Z"/><path d="M18.92,56.37a7.17,7.17,0,0,1-2.78-2.49,7.38,7.38,0,0,1-2.77,2.49c-1.53.9-2.73,1.61-2.73,6.46v8.32h11V62.83C21.64,58,20.44,57.3,18.92,56.37Z"/><path d="M65.13,56.37a7.43,7.43,0,0,1-2.77-2.48,7.3,7.3,0,0,1-2.78,2.48c-1.52.9-2.72,1.61-2.72,6.46v8.32h11V62.83C67.86,58,66.66,57.3,65.13,56.37Z"/><polygon points="68.61 72.65 56.11 72.65 50.04 72.65 28.46 72.65 22.39 72.65 9.89 72.65 0 72.65 0 79.55 78.5 79.55 78.5 72.65 68.61 72.65"/><path d="M39.25,0C27.41,10.73-2,6.64,5.46,29.55H73C80.47,6.64,51.09,10.73,39.25,0Z"/><path d="M3.45,38h71.6a3.45,3.45,0,1,0,0-6.9H3.45a3.45,3.45,0,0,0,0,6.9Z"/></g></g></svg>