<svg xmlns="http://www.w3.org/2000/svg" viewBox="0 0 87.35 60.53"><g id="Calque_2" data-name="Calque 2"><g id="Calque_1-2" data-name="Calque 1"><path d="M78.72,7.77C72.52,1.83,64-.84,54.55.23A40.88,40.88,0,0,0,34.42,8.59,24,24,0,0,0,17.85,28.86H16.51C7.4,28.86,0,36,0,44.71S7.4,60.53,16.51,60.53H66.83c8.59,0,15.68-6.32,16.44-14.37C89.87,32.61,88.54,17.18,78.72,7.77ZM66.83,28.86H65.49A23.69,23.69,0,0,0,60.1,16.13a14.93,14.93,0,0,1,7,3.76,15.34,15.34,0,0,1,4.58,9.68A17.07,17.07,0,0,0,66.83,28.86Zm11.34,4.35a16.32,16.32,0,0,0-3.86-2.62,18.08,18.08,0,0,0-5.43-12.54,17.88,17.88,0,0,0-11.7-4.88h0a23.8,23.8,0,0,0-5.43-3.48c7.53-1.62,15.05,0,20.33,5C77,19.42,79,26.19,78.17,33.21Zm4.63,7.47a15.74,15.74,0,0,0-2.41-5c1.56-8.54-.57-17-6.57-22.78C67.06,6.4,57,5,47.58,8.21h0a24,24,0,0,0-5.91-.74c-.35,0-.69,0-1,0A37,37,0,0,1,54.84,2.76C63.47,1.77,71.32,4.2,77,9.6,84.94,17.25,86.77,29.3,82.8,40.68Z"/></g></g></svg>