<svg xmlns="http://www.w3.org/2000/svg" viewBox="0 0 63.31 64.09"><defs><style>.cls-1{fill-rule:evenodd;}</style></defs><g id="Calque_2" data-name="Calque 2"><g id="Calque_1-2" data-name="Calque 1"><path class="cls-1" d="M23.57,52.27,11.92,40.9a2.59,2.59,0,0,1-.47-3.13Q32,.36,59.34,0a3.79,3.79,0,0,1,2.78,1.11A3.76,3.76,0,0,1,63.3,3.87q.3,27.3-36.59,48.79A2.59,2.59,0,0,1,23.57,52.27Zm-1.44.8L11.3,42.5a.52.52,0,0,0-.72,0l-.6.62a1.37,1.37,0,0,0,0,1.93l9.6,9.37a1.38,1.38,0,0,0,1.94,0l.59-.61a.51.51,0,0,0,0-.72Zm-5.83.35-6-5.83a2.6,2.6,0,0,0-3.23-.33q-6.21,4-7.1,14a2.56,2.56,0,0,0,.78,2.1,2.55,2.55,0,0,0,2.12.72q10-1.12,13.81-7.43a2.59,2.59,0,0,0-.42-3.22Zm25.91-8.24.06,4.68a6.84,6.84,0,0,1-4,6.39l-8.45,4.09a1.36,1.36,0,0,1-1.34-.07,1.38,1.38,0,0,1-.67-1.17l-.06-4.38.54-.28a129.71,129.71,0,0,0,13.87-9.26ZM18.45,22.1l-4.58,0a6.82,6.82,0,0,0-6.29,4.1L3.7,34.8a1.37,1.37,0,0,0,.1,1.34A1.35,1.35,0,0,0,5,36.77l4.28,0c.08-.18.16-.36.26-.54A128.6,128.6,0,0,1,18.45,22.1Zm32.42-9.46A7.83,7.83,0,1,0,51,23.72,7.82,7.82,0,0,0,50.87,12.64Z"/></g></g></svg>