<svg xmlns="http://www.w3.org/2000/svg" viewBox="0 0 63.5 80.33"><g id="Calque_2" data-name="Calque 2"><g id="Calque_1-2" data-name="Calque 1"><path d="M53,18.77a2,2,0,0,1,0,4H10.47a2,2,0,0,1,0-4ZM50.5,31.4a2,2,0,1,1,0,4H24.71a2,2,0,0,1,0-4ZM13,31.4a2,2,0,1,1-2,2A2,2,0,0,1,13,31.4ZM50.5,46.81h0a2,2,0,1,1,0,4H24.71a2,2,0,0,1,0-4H50.5Zm-37.5,0h0a2,2,0,0,1,2,2h0a2,2,0,1,1-4,0h0a2,2,0,0,1,2-2ZM50.5,62.23a2,2,0,1,1,0,4H24.71a2,2,0,0,1,0-4Zm-37.5,0a2,2,0,1,1-2,2,2,2,0,0,1,2-2ZM14.08,0h0a2,2,0,0,0-2,2v10.7H8.82V5.44h0A9.12,9.12,0,0,0,0,14.56V71.2a9.11,9.11,0,0,0,9.07,9.13H54.38A9.13,9.13,0,0,0,63.5,71.2V14.56a9.12,9.12,0,0,0-9.12-9.12H51.44V2a2,2,0,0,0-2-2h0a2,2,0,0,0-2,2V12.71H44.17V5.44H33.77V2a2,2,0,0,0-2-2h0a2,2,0,0,0-2,2V12.71H26.5V5.44H16.09V2a2,2,0,0,0-2-2Z"/></g></g></svg>