<svg xmlns="http://www.w3.org/2000/svg" viewBox="0 0 20.01 20"><g id="Calque_2" data-name="Calque 2"><g id="Calque_1-2" data-name="Calque 1"><path d="M8,.51a1,1,0,0,1,.35.61A2.8,2.8,0,0,0,9.31,2.5c1.08.86,3.2.64,3.92.49a1,1,0,0,1,1.19.75l.21.92-2,.23A1,1,0,0,0,11.77,6a1,1,0,0,0,1.1.88l2.2-.25.26,1.12L13.39,8a1,1,0,0,0-.88,1.11,1,1,0,0,0,1.11.88l2.15-.25L16.06,11l1.61.65C20.28,13,20,14.93,20,14.93v.37H14.14a2.57,2.57,0,0,1-2-.75L2.79,3.13,5,.63A2.32,2.32,0,0,1,8,.51Z"/><path d="M14.12,20H19a1,1,0,0,0,1-1V17.3H14.13a4.42,4.42,0,0,1-3.54-1.51L1.45,4.65.25,6a1,1,0,0,0,0,1.3L9,17.88A8,8,0,0,0,14.12,20Z"/></g></g></svg>