<svg xmlns="http://www.w3.org/2000/svg" viewBox="0 0 90 90"><g id="Calque_2" data-name="Calque 2"><g id="Calque_1-2" data-name="Calque 1"><path d="M65.74,27.45A10.69,10.69,0,0,1,60,37.26a1.7,1.7,0,0,0-1,1.46V39a4,4,0,0,1-8,0v-.28a9.71,9.71,0,0,1,5.28-8.54,2.72,2.72,0,0,0,1.47-2.51,2.75,2.75,0,0,0-4.67-1.89,2.74,2.74,0,0,0-.83,2,4,4,0,0,1-8,0A10.74,10.74,0,0,1,55.3,17,10.89,10.89,0,0,1,65.75,27.45Zm-7,20a4.52,4.52,0,0,0-.36-.69,4.92,4.92,0,0,0-.5-.61,4.28,4.28,0,0,0-.61-.5,4.52,4.52,0,0,0-.69-.36,3.83,3.83,0,0,0-.75-.23,3.73,3.73,0,0,0-1.56,0,4.3,4.3,0,0,0-.75.23,4.52,4.52,0,0,0-.69.36,4,4,0,0,0-1.11,1.11,4.52,4.52,0,0,0-.36.69,3.83,3.83,0,0,0-.23.75A4.13,4.13,0,0,0,51,49a4,4,0,0,0,1.18,2.83,4.92,4.92,0,0,0,.61.5,3.75,3.75,0,0,0,.69.36,3.83,3.83,0,0,0,.75.23,3.84,3.84,0,0,0,1.56,0,3.83,3.83,0,0,0,.75-.23,4.52,4.52,0,0,0,.69-.36,4.92,4.92,0,0,0,.61-.5,4,4,0,0,0,1.09-3.61,3.83,3.83,0,0,0-.23-.75ZM90,24V46A23.88,23.88,0,0,1,76,67.82V78a4,4,0,0,1-6.33,3.25L53.91,70H44A24,24,0,0,1,20,46V24A24,24,0,0,1,44,0H66A24,24,0,0,1,90,24Zm-8,0A16,16,0,0,0,66,8H44A16,16,0,0,0,28,24V46A16,16,0,0,0,44,62H55.2a4,4,0,0,1,2.32.75L68,70.23V65.09a4,4,0,0,1,2.8-3.82A15.94,15.94,0,0,0,82,46ZM46.94,74A9,9,0,0,1,38,82H17a9,9,0,0,1-9-9V52a9,9,0,0,1,8-8.91v-8A17,17,0,0,0,0,52V73A17,17,0,0,0,17,90H38A17,17,0,0,0,54.79,75.54L52.64,74h-5.7Z"/></g></g></svg>