<svg xmlns="http://www.w3.org/2000/svg" viewBox="0 0 90 54.2"><g id="Calque_2" data-name="Calque 2"><g id="Calque_1-2" data-name="Calque 1"><path d="M81.36,28.68,75.59,1.48a2.23,2.23,0,0,0-3-1.33L47.71,9.08a.31.31,0,0,0-.22.28V32a2.21,2.21,0,0,1-4.35,0V9.36a.31.31,0,0,0-.22-.28L18,.15a2.23,2.23,0,0,0-3,1.33L9.27,28.68a1.77,1.77,0,0,0,1.35,2L43.17,41a7.17,7.17,0,0,0,4.3,0L80,30.67a1.79,1.79,0,0,0,1.36-2Z"/><path d="M89.87,30.82,83.62,3.07a2.18,2.18,0,0,0-2.57-1.53,2,2,0,0,0-1.7,2.32l6.26,27.75a1.59,1.59,0,0,1-1.15,1.82L45.58,45.7a2.32,2.32,0,0,1-.58.08,2.2,2.2,0,0,1-.58-.08L5.54,33.43a1.58,1.58,0,0,1-1.15-1.82L10.65,3.86A2,2,0,0,0,9,1.54,2.18,2.18,0,0,0,6.38,3.07L.12,30.82a5.5,5.5,0,0,0,4,6.33L33.2,46.32a.29.29,0,0,1-.05.58c-6,1.23-10.62,3.51-10.89,7,0,.17.16.32.37.32h3.72a.33.33,0,0,0,.3-.2c.61-1.36,7-4.14,18.35-4.14S62.75,52.64,63.36,54a.32.32,0,0,0,.29.2h3.72a.35.35,0,0,0,.38-.32c-.27-3.47-4.87-5.75-10.89-7a.29.29,0,0,1-.06-.58l29.1-9.17a5.51,5.51,0,0,0,4-6.33Z"/></g></g></svg>