<svg xmlns="http://www.w3.org/2000/svg" viewBox="0 0 93.41 52.7"><g id="Calque_2" data-name="Calque 2"><g id="Calque_1-2" data-name="Calque 1"><path d="M3.49,19.68A3.49,3.49,0,0,0,0,23.17v6.36a3.49,3.49,0,1,0,7,0V23.17A3.49,3.49,0,0,0,3.49,19.68Zm86.43-2a3.49,3.49,0,0,0-3.49,3.49V31.53a3.49,3.49,0,1,0,7,0V21.17a3.49,3.49,0,0,0-3.49-3.49ZM14.3,15.79a3.49,3.49,0,0,0-3.49,3.49V33.42a3.49,3.49,0,0,0,7,0V19.28A3.49,3.49,0,0,0,14.3,15.79Zm43.21-1.25A3.5,3.5,0,0,0,54,18V34.67a3.49,3.49,0,1,0,7,0V18A3.5,3.5,0,0,0,57.51,14.54Zm10.81-3A3.5,3.5,0,0,0,64.82,15V37.69a3.5,3.5,0,0,0,7,0V15A3.49,3.49,0,0,0,68.32,11.52Zm-21.61,0A3.49,3.49,0,0,0,43.22,15V37.69a3.49,3.49,0,1,0,7,0V15A3.49,3.49,0,0,0,46.71,11.52ZM25.1,4.78a3.49,3.49,0,0,0-3.49,3.49V44.43a3.49,3.49,0,1,0,7,0V8.27A3.49,3.49,0,0,0,25.1,4.78Zm54,0a3.49,3.49,0,0,0-3.49,3.49V44.43a3.49,3.49,0,1,0,7,0V8.27A3.49,3.49,0,0,0,79.12,4.78ZM35.9,0a3.48,3.48,0,0,0-3.48,3.49V49.21a3.49,3.49,0,0,0,7,0V3.49A3.5,3.5,0,0,0,35.9,0Z"/></g></g></svg>