<svg xmlns="http://www.w3.org/2000/svg" viewBox="0 0 85.52 100"><g id="Calque_2" data-name="Calque 2"><g id="Calque_1-2" data-name="Calque 1"><path d="M71.93,46.88v-7.8l-22,13.07Z"/><path d="M13.6,39.07v7.81l22,5.27Z"/><path d="M5.66,91.4l36,8.6V56L0,46Z"/><path d="M43.92,56V100l36-8.6L85.52,46Z"/><path d="M30.87,34.35l1.26,3.41,1.27-3.41a1.16,1.16,0,0,1,.68-.69l3.41-1.26-3.41-1.26a1.14,1.14,0,0,1-.68-.68l-1.27-3.41-1.26,3.41a1.17,1.17,0,0,1-.68.68L26.78,32.4l3.41,1.26A1.16,1.16,0,0,1,30.87,34.35Z"/><path d="M51.21,25a1.17,1.17,0,0,1,.68.68l1.9,5.12,1.9-5.12a1.17,1.17,0,0,1,.68-.68l5.12-1.9-5.12-1.89a1.23,1.23,0,0,1-.68-.68l-1.9-5.13-1.9,5.13a1.2,1.2,0,0,1-.68.68l-5.12,1.89Z"/><path d="M36.73,10.28l1.9,5.12,1.9-5.12a1.14,1.14,0,0,1,.68-.68l5.12-1.9L41.21,5.8a1.18,1.18,0,0,1-.68-.67L38.63,0l-1.9,5.12a1.13,1.13,0,0,1-.67.68L30.93,7.7l5.13,1.9a1.08,1.08,0,0,1,.67.68Z"/></g></g></svg>