<svg xmlns="http://www.w3.org/2000/svg" viewBox="0 0 42.36 43.04"><g id="Calque_2" data-name="Calque 2"><g id="Calque_1-2" data-name="Calque 1"><path d="M15.19.18,11.66,5.4a4.41,4.41,0,0,0,3.87,6.53h0A4.41,4.41,0,0,0,19.41,5.4L15.88.18A.42.42,0,0,0,15.3.07a.38.38,0,0,0-.11.11ZM30.8,11.93a3.77,3.77,0,0,0-3.11,1.85c-.77,1.09-1.1,3.7-1.24,6.22L14.87,17.21a6.68,6.68,0,0,1-3-1.64l-1.53-1.44a6.92,6.92,0,0,0-3.14-1.57A7.55,7.55,0,0,0,1,14.2H1a3.37,3.37,0,0,0-1,2.63c.33,2.71,3.09,6.94,6,8.82L24.11,37.83C27.25,40,31.63,37.55,33,34l1.84-3.16a7.25,7.25,0,0,0-.3-5.94h0a5,5,0,0,0-.29-.5,16.75,16.75,0,0,1-2-6.62,11.69,11.69,0,0,1,.44-4.71.64.64,0,0,0-.29-.83l-.08,0h0a3.85,3.85,0,0,0-1.44-.27ZM38,31.14a1.1,1.1,0,0,0-.81.34.73.73,0,0,0-.17.27l-3.42,8.59a1.17,1.17,0,0,0,.8,1.45l2.86,1.14a1.17,1.17,0,0,0,1.58-.5l3.43-8.59a1.17,1.17,0,0,0-.81-1.45l-2.85-1.14a1.46,1.46,0,0,0-.61-.11Z"/></g></g></svg>