<svg xmlns="http://www.w3.org/2000/svg" viewBox="0 0 74.76 56.68"><g id="Calque_2" data-name="Calque 2"><g id="Calque_1-2" data-name="Calque 1"><path d="M71.32,7.45a3,3,0,0,0-1.89-2.22c-30.9-11.51-62.81-.49-64.15,0A3,3,0,0,0,3.47,7c-.32.85-7.58,20.85-.09,41.83l.07.41a3,3,0,0,0,1.89,2.22A88.06,88.06,0,0,0,36,56.68a109.5,109.5,0,0,0,33.47-5.21,3,3,0,0,0,1.81-1.79c.31-.84,7.57-20.84.09-41.82ZM47.64,30.35,29.46,41A2.3,2.3,0,0,1,26,39V17.71a2.3,2.3,0,0,1,3.46-2L47.62,26.36a2.31,2.31,0,0,1,0,4Z"/></g></g></svg>